<?xml version="1.0" encoding="UTF-8"?>
<svg id="_レイヤー_1" data-name="レイヤー 1" xmlns="http://www.w3.org/2000/svg" viewBox="0 0 408.48 319.48">
  <defs>
    <style>
      .cls-1 {
        fill: #009247;
      }
    </style>
  </defs>
  <path class="cls-1" d="M226.9,79.39c-43.65,15.52-96.44,41.6-127.35,75.52-15.57,17.08-32.1,44.8-29.03,68.03,2.07,15.65,12.77,27.67,28.63,29.82,50.15,6.77,113.31-39.99,148.98-72.1l41.09-36.99c4.9-4.41,29.14-26.98,34.37-18.95,8.17,12.56-35.49,80.25-12.33,86.88,17.21,4.93,40.95-14.9,53.04-25.87,15.38-13.96,27.07-30.09,38.73-47.81-2.64,14.01-9.07,25.72-15.9,37.6-12.03,20.95-29.86,41.99-47.89,58.52-38.25,35.07-83.81,61.32-133.76,76.12-68.78,20.38-146.49,9.62-186.63-54.94C1.17,226.79-4.21,193.88,3.29,161.09c6.39-27.91,20.6-52.1,39.96-73.38,20.87-22.93,46.48-40.01,74.55-53.6C168.53,9.56,226.04-3.22,282.36.7c20.48,1.43,39.88,5.62,58.84,13.1,17.44,6.89,32.02,16.87,44.61,30.78,18.63,20.59,25.78,48.26,21.45,75.68-10.69,21.92-33.92,50.02-59.28,52.68-3.92.41-7.86-.15-10.34-2.74-1.95-2.03-3.5-6.26-3.04-9.89,2.5-19.71,11.37-37.49,15.75-60.08.92-4.73.21-10.23-2.18-14.2-5.5-9.14-18.5.85-23.29,5.34l-10.97,10.28c-6.54,6.13-12.4,12.57-18.59,19.28-14.52,15.77-29.14,30.53-45.5,44.43l-23.88,20.3c-18.75,15.93-38.12,30.05-59.33,42.62-18.72,11.1-43.93,22.8-65.58,18.37-9.12-1.87-14.04-9.34-12.37-18.45,4.24-23.16,26.14-46.11,42.41-62.94,36.34-7.19,77.02-15.28,110.75-30.17,12.29-5.43,23.51-12.2,32.81-21.78,8.26-8.51,18.25-26.02,8.08-35.93-11.74-11.44-40.57-3.42-55.79,1.99Z"/>
  <path class="cls-1" d="M242.94,116.35c-32.43,20.32-67.12,35.1-106,43.35,23.47-23.24,48.14-42.93,74.55-60.65,11-7.38,21.84-13.28,33.58-18.77,6.25-2.26,22-7.41,25.6-1.18,3.63,6.27-4.45,17.18-9.33,21.77-5.75,5.76-11.23,10.36-18.4,15.48Z"/>
</svg>